<svg id="Capa_1" enable-background="new 0 0 512 512" height="512" viewBox="0 0 512 512" width="512" xmlns="http://www.w3.org/2000/svg"><g><g><path clip-rule="evenodd" d="m374.213 137.787c65.28 65.28 65.28 171.145 0 236.425s-171.145 65.28-236.425 0c-65.308-65.28-65.308-171.145 0-236.425 65.279-65.308 171.145-65.308 236.425 0z" fill="#fff" fill-rule="evenodd"/></g><g><path clip-rule="evenodd" d="m482.593 209.441c10.661 0 19.407 8.717 19.407 19.378v54.333c0 10.689-8.746 19.407-19.407 19.407h-20.293c-5.373 23.923-14.777 46.302-27.495 66.366l14.348 14.376c7.545 7.545 7.545 19.893 0 27.438l-38.413 38.413c-7.546 7.545-19.893 7.545-27.438 0l-14.348-14.348c-20.093 12.719-42.472 22.151-66.395 27.524v20.264c0 10.661-8.717 19.407-19.407 19.407h-54.333c-10.661 0-19.378-8.746-19.378-19.407v-20.264c-23.923-5.373-46.302-14.805-66.395-27.524l-14.348 14.348c-7.545 7.545-19.893 7.545-27.438 0l-38.413-38.412c-7.545-7.546-7.545-19.893 0-27.438l14.348-14.376c-12.719-20.064-22.151-42.443-27.524-66.366h-20.264c-10.689 0-19.407-8.717-19.407-19.407v-54.333c0-10.661 8.717-19.378 19.407-19.378h20.264c5.373-23.923 14.805-46.302 27.524-66.395l-14.348-14.348c-7.545-7.545-7.545-19.893 0-27.438l38.413-38.413c7.545-7.545 19.893-7.545 27.438 0l14.348 14.348c20.093-12.719 42.472-22.151 66.395-27.524v-20.265c0-10.689 8.717-19.407 19.378-19.407h54.333c10.689 0 19.407 8.717 19.407 19.407v20.264c23.923 5.373 46.302 14.805 66.395 27.524l14.348-14.348c7.546-7.545 19.893-7.545 27.438 0l38.413 38.413c7.545 7.545 7.545 19.893 0 27.438l-14.348 14.348c12.719 20.093 22.122 42.472 27.495 66.395zm-108.38 164.772c65.28-65.28 65.28-171.145 0-236.425-65.28-65.308-171.145-65.308-236.425 0-65.308 65.28-65.308 171.145 0 236.425 65.279 65.28 171.145 65.28 236.425 0z" fill="#a6afc6" fill-rule="evenodd"/></g><g><path d="m265.745 192.687c-4.943-2.461-10.948-.448-13.409 4.495l-27.066 54.361c-2.462 4.944-.449 10.947 4.495 13.409 1.179.587 2.417.906 3.653 1.005.212.025.451.039.723.041.024 0 .049.004.073.004.01 0 .019-.002.028-.002h27.366l-19.849 39.908c-2.459 4.944-.445 10.947 4.5 13.407 1.43.711 2.949 1.048 4.445 1.048 3.676 0 7.213-2.034 8.961-5.549l27.038-54.361c2.459-4.944.445-10.947-4.5-13.407-1.385-.689-2.853-1.015-4.304-1.035-.053-.001-.094-.011-.149-.011h-27.38l19.868-39.904c2.463-4.945.45-10.948-4.493-13.409z"/><path d="m482.593 199.44h-12.439c-5.067-19.271-12.686-37.668-22.725-54.876l8.794-8.795c5.538-5.538 8.588-12.921 8.588-20.79s-3.05-15.252-8.588-20.79l-38.414-38.414c-11.463-11.463-30.116-11.463-41.581 0l-8.794 8.795c-17.236-10.06-35.634-17.689-54.875-22.753v-12.41c0-16.215-13.192-29.407-29.407-29.407h-54.333c-16.199 0-29.378 13.192-29.378 29.407v12.41c-19.241 5.064-37.639 12.693-54.877 22.753l-8.794-8.795c-11.464-11.464-30.117-11.462-41.581 0l-38.413 38.414c-5.539 5.538-8.589 12.921-8.589 20.79s3.05 15.252 8.588 20.79l8.794 8.794c-10.059 17.237-17.687 35.635-22.751 54.877h-12.411c-16.215 0-29.407 13.18-29.407 29.379v54.333c0 16.215 13.192 29.406 29.407 29.406h12.411c5.066 19.253 12.695 37.646 22.754 54.859l-8.795 8.812c-5.539 5.538-8.589 12.921-8.589 20.79s3.05 15.252 8.588 20.79l38.414 38.414c11.463 11.463 30.116 11.463 41.581 0l8.794-8.795c17.238 10.061 35.636 17.689 54.877 22.753v12.41c0 16.215 13.179 29.407 29.378 29.407h54.333c16.215 0 29.407-13.192 29.407-29.407v-12.41c19.241-5.063 37.639-12.692 54.877-22.753l8.794 8.795c11.464 11.463 30.117 11.463 41.581 0l38.413-38.414c5.538-5.538 8.588-12.921 8.588-20.79s-3.05-15.252-8.581-20.782l-8.803-8.821c10.037-17.185 17.657-35.578 22.727-54.858h12.438c16.215 0 29.407-13.191 29.407-29.406v-54.333c-.001-16.199-13.193-29.379-29.408-29.379zm9.407 83.712c0 5.187-4.22 9.406-9.407 9.406h-20.293c-4.679 0-8.731 3.244-9.757 7.809-5.055 22.504-13.864 43.769-26.184 63.203-2.504 3.95-1.936 9.108 1.368 12.418l14.355 14.385c1.76 1.761 2.73 4.121 2.73 6.647s-.97 4.887-2.73 6.647l-38.413 38.414c-3.666 3.665-9.631 3.666-13.296 0l-14.348-14.349c-3.307-3.307-8.468-3.88-12.42-1.378-19.519 12.355-40.795 21.176-63.237 26.217-4.565 1.025-7.809 5.078-7.809 9.757v20.264c0 5.188-4.22 9.407-9.407 9.407h-54.333c-5.171 0-9.378-4.22-9.378-9.407v-20.264c0-4.679-3.244-8.731-7.809-9.757-22.442-5.04-43.718-13.861-63.237-26.217-1.646-1.042-3.501-1.551-5.345-1.551-2.583 0-5.145.999-7.075 2.929l-14.347 14.349c-3.665 3.666-9.63 3.666-13.296 0l-38.414-38.414c-1.761-1.761-2.73-4.121-2.73-6.647s.97-4.887 2.738-6.655l14.348-14.377c3.304-3.31 3.872-8.468 1.368-12.418-12.349-19.479-21.168-40.744-26.213-63.203-1.025-4.564-5.079-7.809-9.757-7.809h-20.265c-5.187 0-9.407-4.22-9.407-9.406v-54.333c0-5.172 4.22-9.379 9.407-9.379h20.264c4.678 0 8.731-3.244 9.757-7.809 5.042-22.444 13.862-43.721 26.216-63.237 2.502-3.953 1.93-9.111-1.378-12.42l-14.348-14.348c-1.761-1.761-2.73-4.121-2.73-6.647s.97-4.887 2.731-6.647l38.413-38.414c3.665-3.666 9.63-3.667 13.296 0l14.348 14.349c3.308 3.307 8.468 3.88 12.42 1.378 19.52-12.355 40.795-21.177 63.237-26.217 4.565-1.025 7.809-5.078 7.809-9.757v-20.264c0-5.188 4.207-9.407 9.378-9.407h54.333c5.187 0 9.407 4.22 9.407 9.407v20.264c0 4.679 3.244 8.731 7.809 9.757 22.442 5.041 43.718 13.861 63.237 26.217 3.953 2.501 9.112 1.928 12.42-1.378l14.347-14.349c3.666-3.665 9.631-3.667 13.296 0l38.414 38.414c1.76 1.761 2.73 4.121 2.73 6.647s-.97 4.887-2.73 6.647l-14.348 14.348c-3.308 3.309-3.88 8.467-1.378 12.42 12.325 19.472 21.136 40.747 26.188 63.237 1.025 4.564 5.078 7.809 9.757 7.809h20.293c5.187 0 9.407 4.207 9.407 9.379v54.333z"/><path d="m180.565 317.292c-3.907 3.904-3.909 10.235-.005 14.143 20.149 20.165 46.941 31.271 75.44 31.271s55.291-11.105 75.432-31.263c17.653-17.625 28.36-40.364 30.748-64.901l10.592 10.592c1.953 1.952 4.512 2.929 7.071 2.929s5.119-.977 7.071-2.929c3.905-3.905 3.906-10.237 0-14.143l-28.153-28.153c-1.875-1.875-4.419-2.929-7.071-2.929s-5.196 1.054-7.071 2.929l-28.153 28.153c-3.905 3.905-3.905 10.237 0 14.143 3.905 3.904 10.237 3.904 14.142 0l11.543-11.543c-2.135 19.542-10.761 37.63-24.859 51.708-16.372 16.384-38.139 25.407-61.293 25.407s-44.921-9.023-61.293-25.407c-3.903-3.907-10.235-3.91-14.141-.007z"/><path d="m149.822 245.433-10.594-10.595c-3.905-3.903-10.237-3.904-14.142 0-3.905 3.905-3.906 10.237 0 14.143l28.153 28.153c3.853 3.846 10.289 3.849 14.143 0l28.153-28.153c3.905-3.905 3.905-10.237 0-14.143-3.905-3.904-10.237-3.904-14.142 0l-11.539 11.539c2.142-19.527 10.766-37.614 24.852-51.701 33.798-33.799 88.793-33.799 122.591 0 3.905 3.904 10.237 3.904 14.143 0 3.905-3.905 3.905-10.237 0-14.143-41.597-41.596-109.279-41.596-150.876 0-17.645 17.643-28.348 40.381-30.742 64.9z"/><path d="m305.215 85.735c-5.303-1.527-10.849 1.532-12.379 6.838-1.53 5.307 1.531 10.849 6.837 12.379 25.374 7.317 48.702 21.114 67.467 39.906 29.684 29.684 46.032 69.154 46.032 111.142s-16.348 81.458-46.032 111.142c-61.283 61.283-160.999 61.282-222.284-.001-29.695-29.684-46.05-69.155-46.05-111.141s16.354-81.457 46.057-111.146c19.273-19.299 43.287-33.281 69.445-40.436 5.328-1.457 8.465-6.956 7.008-12.283s-6.959-8.467-12.284-7.008c-29.51 8.07-56.593 23.836-78.314 45.588-33.476 33.461-51.912 77.955-51.912 125.285s18.436 91.824 51.911 125.284c34.541 34.54 79.912 51.811 125.283 51.811s90.743-17.271 125.284-51.811c33.461-33.462 51.889-77.955 51.889-125.284s-18.428-91.823-51.884-125.279c-21.148-21.177-47.454-36.733-76.074-44.986z"/><path d="m255.943 98.799h.057c5.523 0 9.971-4.478 9.971-10s-4.505-10-10.028-10-10 4.478-10 10 4.477 10 10 10z"/></g></g></svg>